<svg xmlns="http://www.w3.org/2000/svg" fill="none" viewBox="30.49 30.5 25.03 25">
<g filter="url(#filter0_d_19_915)">
<path d="M53.0501 36.525L45.85 31.4875C43.8875 30.1125 40.875 30.1875 38.9875 31.65L32.725 36.5375C31.475 37.5125 30.4875 39.5125 30.4875 41.0875V49.7125C30.4875 52.9 33.075 55.5 36.2625 55.5H49.7375C52.925 55.5 55.5126 52.9125 55.5126 49.725V41.25C55.5126 39.5625 54.4251 37.4875 53.0501 36.525ZM43.9375 50.5C43.9375 51.0125 43.5125 51.4375 43 51.4375C42.4875 51.4375 42.0625 51.0125 42.0625 50.5V46.75C42.0625 46.2375 42.4875 45.8125 43 45.8125C43.5125 45.8125 43.9375 46.2375 43.9375 46.75V50.5Z" fill="white" data-darkreader-inline-fill="" style="--darkreader-inline-fill: #181a1b;"/>
</g>
<defs>
<filter id="filter0_d_19_915" x="-2" y="-2" width="90" height="90" filterUnits="userSpaceOnUse" color-interpolation-filters="sRGB">
<feFlood flood-opacity="0" result="BackgroundImageFix"/>
<feColorMatrix in="SourceAlpha" type="matrix" values="0 0 0 0 0 0 0 0 0 0 0 0 0 0 0 0 0 0 127 0" result="hardAlpha"/>
<feOffset/>
<feGaussianBlur stdDeviation="15"/>
<feComposite in2="hardAlpha" operator="out"/>
<feColorMatrix type="matrix" values="0 0 0 0 1 0 0 0 0 1 0 0 0 0 1 0 0 0 0.3 0"/>
<feBlend mode="normal" in2="BackgroundImageFix" result="effect1_dropShadow_19_915"/>
<feBlend mode="normal" in="SourceGraphic" in2="effect1_dropShadow_19_915" result="shape"/>
</filter>
</defs>
</svg>